<?xml version="1.0" encoding="UTF-8"?>
<svg version="1.1" xmlns="http://www.w3.org/2000/svg" width="32" height="32">
<path d="M0 0 C0.89267578 -0.01546875 1.78535156 -0.0309375 2.70507812 -0.046875 C8.99482185 -0.00901349 8.99482185 -0.00901349 11.75 2.015625 C13.08411184 5.55102139 13.25953959 9.01568059 13.375 12.75 C13.42624023 13.86761719 13.42624023 13.86761719 13.47851562 15.0078125 C13.56064054 16.83802492 13.62575653 18.66898669 13.6875 20.5 C11.02571779 21.8308911 9.00010604 21.61268993 6.0234375 21.59765625 C4.90195312 21.59443359 3.78046875 21.59121094 2.625 21.58789062 C1.449375 21.57951172 0.27375 21.57113281 -0.9375 21.5625 C-2.12085937 21.55798828 -3.30421875 21.55347656 -4.5234375 21.54882812 C-7.45317507 21.53701467 -10.38281272 21.52054258 -13.3125 21.5 C-15.17854344 17.31920801 -15.35825068 14.99672794 -14.3125 10.5 C-15.6325 10.5 -16.9525 10.5 -18.3125 10.5 C-18.3125 8.52 -18.3125 6.54 -18.3125 4.5 C-11.99268888 0.79198509 -7.27525984 -0.12886069 0 0 Z " fill="#A4D186" transform="translate(18.3125,8.5)"/>
<path d="M0 0 C0.66 0.33 1.32 0.66 2 1 C1.690625 1.5775 1.38125 2.155 1.0625 2.75 C0.07416636 4.84294184 -0.5168613 6.74535275 -1 9 C-2.32 9 -3.64 9 -5 9 C-5.3125 6.1875 -5.3125 6.1875 -5 3 C-2.625 1.0625 -2.625 1.0625 0 0 Z " fill="#BD694D" transform="translate(5,10)"/>
</svg>
